<svg width="120" height="120" viewBox="0 0 120 120" fill="none" xmlns="http://www.w3.org/2000/svg">
<circle cx="59.5464" cy="59.5469" r="53.5" fill="#FAFAFA" stroke="#68D391" stroke-width="8"/>
<path d="M112.899 63.5496C110.949 89.9068 89.904 110.951 63.5464 112.9L63.5464 63.5474C67.5245 63.548 70.117 63.5487 72.4737 63.5494C79.145 63.5512 83.9269 63.5526 112.899 63.5496Z" fill="#FAFAFA" stroke="#FAFAFA" stroke-width="8"/>
<path d="M6.14747 55.4972C8.09696 29.14 29.1424 8.09547 55.5 6.14732L55.5 55.4995C51.5219 55.4989 48.9294 55.4981 46.5727 55.4975C39.9014 55.4956 35.1195 55.4943 6.14747 55.4972Z" fill="#FAFAFA" stroke="#FAFAFA" stroke-width="8"/>
<path d="M37.5041 61.982L47.5554 55.364C47.5554 55.364 54.9277 53.3886 61.1188 54.5661C67.3099 55.7437 71.5659 56.4008 71.5659 56.4008L69.9814 80.7328L68.1825 83.8488C68.1825 83.8488 67.2351 84.8535 62.9216 85.7649C58.6082 86.6763 49.8154 84.1103 47.059 82.5189C44.3026 80.9275 38.1847 73.9451 36.7959 70.6812C35.4071 67.4173 35.7051 65.0979 35.7051 65.0979L37.5041 61.982Z" fill="url(#paint0_linear_315_8)"/>
<path d="M62.9696 36.3965C63.5552 35.9357 67.174 36.5869 67.174 36.5869L65.8594 38.8639C65.8594 38.8639 68.2628 41.6596 70.1502 42.7793C72.175 43.9807 75.8063 44.6068 75.8063 44.6068L77.1209 42.3298C77.1209 42.3298 79.3744 45.069 79.388 45.8757L76.7587 50.4298C76.2237 51.0796 70.9037 50.8843 67.3084 48.8086C63.7131 46.7328 60.2019 41.1903 60.3403 40.9506L62.9696 36.3965Z" fill="#A0A0A0"/>
<path d="M62.9696 36.3965C63.5552 35.9357 67.174 36.5869 67.174 36.5869L65.8594 38.8639C65.8594 38.8639 68.2628 41.6596 70.1502 42.7793C72.175 43.9807 75.8063 44.6068 75.8063 44.6068L77.1209 42.3298C77.1209 42.3298 79.3744 45.069 79.388 45.8757M62.9696 36.3965C62.8312 36.6362 66.3424 42.1788 69.9376 44.2545C73.5329 46.3303 78.853 46.5256 79.388 45.8757M62.9696 36.3965L60.3403 40.9506C60.2019 41.1903 63.7131 46.7328 67.3084 48.8086C70.9037 50.8843 76.2237 51.0796 76.7587 50.4298L79.388 45.8757" stroke="black" stroke-opacity="0.12"/>
<path d="M70.1504 42.7812C68.2631 41.6614 65.8596 38.8657 65.8596 38.8657L69.8035 32.0347C74.5891 32.879 76.4373 34.1061 79.6306 37.7084L75.8065 44.6086C75.8065 44.6086 72.1753 43.9825 70.1504 42.7812Z" fill="url(#paint1_linear_315_8)"/>
<path d="M62.3164 44.1992L47.3664 55.4217C47.3664 55.4217 57.1405 53.7145 60.9298 54.6239C64.7191 55.5333 68.8864 56.3414 71.5651 56.4099L72.655 50.6475C72.655 50.6475 69.1145 49.8943 66.8976 48.442C64.7946 47.0644 62.3164 44.1992 62.3164 44.1992Z" fill="url(#paint2_linear_315_8)"/>
<defs>
<linearGradient id="paint0_linear_315_8" x1="46.4357" y1="56.7523" x2="70.1966" y2="70.9501" gradientUnits="userSpaceOnUse">
<stop stop-color="#68D391"/>
<stop offset="1" stop-color="#1A5B33"/>
</linearGradient>
<linearGradient id="paint1_linear_315_8" x1="78.0265" y1="35.505" x2="70.2101" y2="42.8162" gradientUnits="userSpaceOnUse">
<stop stop-color="#AB9D52"/>
<stop offset="0.0001" stop-color="#8A7E3F"/>
<stop offset="1" stop-color="#AB9D52"/>
</linearGradient>
<linearGradient id="paint2_linear_315_8" x1="59.1806" y1="46.8628" x2="71.9346" y2="54.3861" gradientUnits="userSpaceOnUse">
<stop stop-color="#CCCCCC"/>
<stop offset="1" stop-color="#777777"/>
</linearGradient>
</defs>
</svg>
