<svg width="30" height="30" viewBox="0 0 30 30" fill="none" xmlns="http://www.w3.org/2000/svg">
<path d="M10.4382 17.0996L10.5204 16.7937L10.2789 16.5888L6.75836 13.6001C6.62421 13.4661 6.53015 13.2997 6.48525 13.1188C6.43917 12.9332 6.4464 12.7388 6.50625 12.5569C6.56613 12.3749 6.67661 12.2117 6.82651 12.0862C6.97216 11.9642 7.14932 11.8825 7.33946 11.8506L12.0374 11.4986L12.3565 11.4747L12.4684 11.1749L13.9989 7.07657C14.0854 6.91034 14.2166 6.76896 14.3797 6.66839C14.5495 6.56373 14.7466 6.50781 14.9484 6.50781C15.1501 6.50781 15.3472 6.56373 15.517 6.66839C15.6816 6.76984 15.8137 6.91282 15.9001 7.08095L17.5355 11.1851L17.6514 11.4758L17.9635 11.4987L22.5601 11.8355C22.753 11.8658 22.9332 11.9473 23.0812 12.0704C23.233 12.1966 23.3448 12.3614 23.4049 12.5452C23.4651 12.729 23.4715 12.9255 23.4236 13.1126C23.3767 13.2959 23.2791 13.4641 23.1406 13.5982L19.631 16.5894L19.3913 16.7937L19.472 17.0981L20.5922 21.3206C20.6192 21.5031 20.596 21.6896 20.5244 21.861C20.4501 22.0388 20.3264 22.1939 20.1661 22.3081C20.0056 22.4223 19.8152 22.4908 19.616 22.505C19.4224 22.5189 19.2291 22.4807 19.0568 22.3954L15.2609 20.0735L15.0035 19.916L14.7442 20.0704L10.8423 22.3943C10.6694 22.4804 10.4752 22.5189 10.2807 22.505C10.0816 22.4908 9.89109 22.4223 9.73066 22.3081C9.5703 22.1939 9.44659 22.0388 9.37233 21.861C9.30087 21.6898 9.27761 21.5036 9.30447 21.3213L10.4382 17.0996Z" fill="#FAD200" stroke="#718096"/>
</svg>
