<svg width="30" height="30" viewBox="0 0 30 30" fill="none" xmlns="http://www.w3.org/2000/svg">
<path d="M9.7294 16.9179L9.71805 16.9835L8.98273 21.2299C8.98272 21.23 8.9827 21.2301 8.98268 21.2301C8.939 21.489 8.96954 21.7548 9.07097 21.9977C9.17245 22.2407 9.34095 22.4513 9.55781 22.6057C9.77468 22.7602 10.0313 22.8522 10.2987 22.8713C10.5662 22.8904 10.8337 22.8357 11.0711 22.7136L14.9356 20.7133L14.993 20.6836L15.0505 20.7133L18.915 22.7136C19.1524 22.8357 19.4199 22.8904 19.6874 22.8713C19.9548 22.8522 20.2114 22.7602 20.4283 22.6057C20.6451 22.4513 20.8136 22.2407 20.9151 21.9977C21.0165 21.7548 21.0471 21.489 21.0034 21.2301C21.0034 21.2301 21.0034 21.23 21.0034 21.2299L20.268 16.9835L20.2567 16.9179L20.3047 16.8719L23.4341 13.8714L23.4346 13.8708C23.6286 13.6872 23.766 13.4539 23.8316 13.1977C23.8972 12.9415 23.8883 12.6724 23.806 12.4209C23.7238 12.1693 23.5713 11.9452 23.3656 11.7742C23.16 11.6032 22.9094 11.4922 22.6424 11.4541L9.7294 16.9179ZM9.7294 16.9179L9.68139 16.8719L6.55258 13.8719C6.55249 13.8718 6.55241 13.8717 6.55233 13.8717C6.36272 13.6875 6.22906 13.4554 6.16598 13.2014C6.10287 12.9472 6.11281 12.6809 6.19471 12.4319C6.27662 12.1829 6.42736 11.9609 6.6304 11.7909C6.83329 11.6209 7.0804 11.5096 7.34425 11.4694C7.34444 11.4694 7.34464 11.4694 7.34484 11.4693L11.6778 10.854L11.7429 10.8448L11.7721 10.786L13.6967 6.92377L13.697 6.92324C13.8146 6.68439 13.9984 6.48264 14.2276 6.34135C14.4569 6.20005 14.7222 6.125 14.993 6.125C15.2639 6.125 15.5292 6.20005 15.7584 6.34135C15.9877 6.48264 16.1715 6.68439 16.2891 6.92324L16.2895 6.92395L18.214 10.7708L18.2434 10.8294L18.3082 10.8386L22.6423 11.4541L9.7294 16.9179Z" fill="#FAD200" stroke="#3A3A3A" stroke-width="0.25"/>
</svg>
