<svg width="588" height="134" viewBox="0 0 588 134" fill="none" xmlns="http://www.w3.org/2000/svg">
<g clip-path="url(#clip0_308_54)">
<rect width="588" height="134" fill="white"/>
<path d="M199.6 97.14C186.815 98.2867 176.208 98.86 167.78 98.86C162.161 98.86 158.033 97.5413 155.396 94.904C152.759 92.2667 151.44 88.1387 151.44 82.52V55C151.44 48.98 152.787 44.6227 155.482 41.928C158.234 39.176 162.62 37.8 168.64 37.8H199.6V49.84H172.08C168.64 49.84 166.92 51.56 166.92 55V82.52C166.92 83.8387 167.293 84.8993 168.038 85.702C168.841 86.4473 169.844 86.82 171.048 86.82C172.252 86.82 173.571 86.82 175.004 86.82C176.437 86.7627 177.928 86.7053 179.476 86.648C181.024 86.5907 182.572 86.5333 184.12 86.476C185.725 86.4187 187.761 86.304 190.226 86.132C192.749 85.96 195.873 85.7593 199.6 85.53V97.14ZM252.07 85.1C252.07 89.4 250.837 92.7827 248.372 95.248C245.964 97.656 242.61 98.86 238.31 98.86H218.53C214.23 98.86 210.847 97.656 208.382 95.248C205.974 92.7827 204.77 89.4 204.77 85.1V65.32C204.77 61.02 205.974 57.666 208.382 55.258C210.847 52.7927 214.23 51.56 218.53 51.56H238.31C242.61 51.56 245.964 52.7927 248.372 55.258C250.837 57.666 252.07 61.02 252.07 65.32V85.1ZM237.02 66.61C237.02 64.3167 235.873 63.17 233.58 63.17H223.26C220.967 63.17 219.82 64.3167 219.82 66.61V83.81C219.82 86.1033 220.967 87.25 223.26 87.25H233.58C235.873 87.25 237.02 86.1033 237.02 83.81V66.61ZM278.72 54.14V98H263.67V65.75H257.22V54.14H278.72ZM263.67 36.94H278.72V48.98H263.67V36.94ZM312.717 64.03C309.678 64.03 306.238 64.6033 302.397 65.75V98H287.347V52.42H300.677L301.537 56.72C304.232 54.9427 306.984 53.6527 309.793 52.85C312.66 51.99 315.068 51.56 317.017 51.56H320.887C324.786 51.56 327.91 52.7353 330.261 55.086C332.612 57.4367 333.787 60.5613 333.787 64.46V98H318.737V67.04C318.737 66.18 318.45 65.4633 317.877 64.89C317.304 64.3167 316.587 64.03 315.727 64.03H312.717ZM357.857 98H342.377V37.8H390.107V49.84H357.857V64.03H383.227V76.07H357.857V98ZM418.487 98C414.645 98.5733 410.976 98.86 407.479 98.86C404.039 98.86 401.143 97.6847 398.793 95.334C396.442 92.9833 395.267 89.8587 395.267 85.96V37.8H410.317V83.81C410.317 84.67 410.603 85.3867 411.177 85.96C411.75 86.5333 412.467 86.82 413.327 86.82H418.487V98ZM442.553 86.82C445.592 86.82 449.032 86.2467 452.873 85.1V79.94H440.403C439.543 79.94 438.827 80.2267 438.253 80.8C437.68 81.3733 437.393 82.09 437.393 82.95V83.81C437.393 84.67 437.68 85.3867 438.253 85.96C438.827 86.5333 439.543 86.82 440.403 86.82H442.553ZM426.643 53.28C437.135 52.1333 446.595 51.56 455.023 51.56C458.922 51.56 462.047 52.7353 464.397 55.086C466.748 57.4367 467.923 60.5613 467.923 64.46V98H454.593L453.733 93.7C451.039 95.4773 448.258 96.796 445.391 97.656C442.582 98.4587 440.203 98.86 438.253 98.86H435.243C431.345 98.86 428.22 97.6847 425.869 95.334C423.519 92.9833 422.343 89.8587 422.343 85.96V82.09C422.343 78.1913 423.519 75.0667 425.869 72.716C428.22 70.3653 431.345 69.19 435.243 69.19H452.873V65.75C452.873 64.89 452.587 64.1733 452.013 63.6C451.44 63.0267 450.723 62.74 449.863 62.74C446.137 62.74 442.009 62.912 437.479 63.256C433.007 63.6 429.395 63.858 426.643 64.03V53.28ZM473.92 85.96C485.559 86.82 494.732 87.25 501.44 87.25C502.3 87.25 503.017 86.9633 503.59 86.39C504.163 85.8167 504.45 85.1 504.45 84.24V81.23H485.96C482.061 81.23 478.937 80.0547 476.586 77.704C474.235 75.3533 473.06 72.2287 473.06 68.33V65.32C473.06 61.4213 474.235 58.2967 476.586 55.946C478.937 53.5953 482.061 52.42 485.96 52.42H515.2V63.6H491.12C490.26 63.6 489.543 63.8867 488.97 64.46C488.397 65.0333 488.11 65.75 488.11 66.61C488.11 67.47 488.397 68.1867 488.97 68.76C489.543 69.3333 490.26 69.62 491.12 69.62H506.6C510.499 69.62 513.623 70.7953 515.974 73.146C518.325 75.4967 519.5 78.6213 519.5 82.52V85.96C519.5 89.8587 518.325 92.9833 515.974 95.334C513.623 97.6847 510.499 98.86 506.6 98.86C496.452 98.86 485.559 98.2867 473.92 97.14V85.96ZM540.577 79.94V98H525.527V37.8H540.577V68.33H547.457L556.917 52.42H572.827L559.927 74.35L572.827 98H556.917L547.027 79.94H540.577Z" fill="#68D391"/>
<circle cx="70.5001" cy="67.4996" r="55.5" transform="rotate(30 70.5001 67.4996)" fill="#FAFAFA" stroke="#68D391" stroke-width="4"/>
<path d="M38.382 71.6967L52.881 62.1502C52.881 62.1502 63.5155 59.3006 72.4461 60.9993C81.3768 62.698 87.516 63.6458 87.516 63.6458L85.2304 98.7446L82.6354 103.239C82.6354 103.239 81.2688 104.689 75.0467 106.003C68.8245 107.318 56.141 103.617 52.1649 101.321C48.1888 99.0254 39.3638 88.9534 37.3605 84.2452C35.3571 79.5371 35.7869 76.1913 35.7869 76.1913L38.382 71.6967Z" fill="url(#paint0_linear_308_54)"/>
<path d="M75.1159 34.7874C75.9607 34.1227 81.1807 35.062 81.1807 35.062L79.2844 38.3466C79.2844 38.3466 82.7514 42.3793 85.4739 43.9946C88.3947 45.7274 93.6328 46.6306 93.6328 46.6306L95.5292 43.3461C95.5292 43.3461 98.7798 47.2973 98.7994 48.4611L95.0067 55.0302C94.235 55.9677 86.5608 55.6859 81.3746 52.6917C76.1884 49.6974 71.1236 41.7023 71.3232 41.3566L75.1159 34.7874Z" fill="#A0A0A0"/>
<path d="M75.1159 34.7874C75.9607 34.1227 81.1807 35.062 81.1807 35.062L79.2844 38.3466C79.2844 38.3466 82.7514 42.3793 85.4739 43.9946C88.3947 45.7274 93.6328 46.6306 93.6328 46.6306L95.5292 43.3461C95.5292 43.3461 98.7798 47.2973 98.7994 48.4611M75.1159 34.7874C74.9163 35.1331 79.9811 43.1283 85.1673 46.1225C90.3535 49.1168 98.0277 49.3985 98.7994 48.4611M75.1159 34.7874L71.3232 41.3566C71.1236 41.7023 76.1884 49.6974 81.3746 52.6917C86.5608 55.6859 94.235 55.9677 95.0067 55.0302L98.7994 48.4611" stroke="black" stroke-opacity="0.12"/>
<path d="M85.4742 43.9943C82.7517 42.3791 79.2847 38.3463 79.2847 38.3463L84.9737 28.4926C91.8769 29.7105 94.5429 31.4806 99.1493 36.6768L93.6331 46.6304C93.6331 46.6304 88.395 45.7272 85.4742 43.9943Z" fill="url(#paint1_linear_308_54)"/>
<path d="M74.1737 46.0409L52.6084 62.2294C52.6084 62.2294 66.7075 59.7667 72.1736 61.0785C77.6396 62.3904 83.651 63.5561 87.515 63.6549L89.0871 55.3427C89.0871 55.3427 83.9799 54.2561 80.782 52.1612C77.7486 50.1741 74.1737 46.0409 74.1737 46.0409Z" fill="url(#paint2_linear_308_54)"/>
</g>
<defs>
<linearGradient id="paint0_linear_308_54" x1="51.2658" y1="64.1528" x2="85.5408" y2="84.6331" gradientUnits="userSpaceOnUse">
<stop stop-color="#68D391"/>
<stop offset="1" stop-color="#1A5B33"/>
</linearGradient>
<linearGradient id="paint1_linear_308_54" x1="96.8353" y1="33.4985" x2="85.5603" y2="44.0448" gradientUnits="userSpaceOnUse">
<stop stop-color="#AB9D52"/>
<stop offset="0.0001" stop-color="#8A7E3F"/>
<stop offset="1" stop-color="#AB9D52"/>
</linearGradient>
<linearGradient id="paint2_linear_308_54" x1="69.6504" y1="49.8833" x2="88.0479" y2="60.7356" gradientUnits="userSpaceOnUse">
<stop stop-color="#CCCCCC"/>
<stop offset="1" stop-color="#777777"/>
</linearGradient>
<clipPath id="clip0_308_54">
<rect width="588" height="134" fill="white"/>
</clipPath>
</defs>
</svg>
