<svg width="120" height="120" viewBox="0 0 120 120" fill="none" xmlns="http://www.w3.org/2000/svg">
<g clip-path="url(#clip0_315_7)">
<circle cx="59.5465" cy="59.5465" r="55.5" transform="rotate(30 59.5465 59.5465)" fill="#FAFAFA" stroke="#F56565" stroke-width="4"/>
<path d="M27.4283 63.7435L41.9274 54.197C41.9274 54.197 52.5619 51.3475 61.4925 53.0462C70.4232 54.7448 76.5624 55.6926 76.5624 55.6926L74.2768 90.7915L71.6818 95.2862C71.6818 95.2862 70.3152 96.7355 64.093 98.0502C57.8709 99.3649 45.1874 95.6634 41.2113 93.3678C37.2352 91.0722 28.4102 81.0002 26.4068 76.2921C24.4035 71.5839 24.8333 68.2382 24.8333 68.2382L27.4283 63.7435Z" fill="url(#paint0_linear_315_7)"/>
<path d="M64.1623 26.8343C65.007 26.1695 70.2271 27.1089 70.2271 27.1089L68.3308 30.3935C68.3308 30.3935 71.7978 34.4262 74.5203 36.0414C77.4411 37.7743 82.6792 38.6775 82.6792 38.6775L84.5755 35.3929C84.5755 35.3929 87.8262 39.3442 87.8458 40.508L84.0531 47.0771C83.2814 48.0145 75.6072 47.7328 70.421 44.7385C65.2348 41.7443 60.1699 33.7492 60.3696 33.4034L64.1623 26.8343Z" fill="#A0A0A0"/>
<path d="M64.1623 26.8343C65.007 26.1695 70.2271 27.1089 70.2271 27.1089L68.3308 30.3935C68.3308 30.3935 71.7978 34.4262 74.5203 36.0414C77.4411 37.7743 82.6792 38.6775 82.6792 38.6775L84.5755 35.3929C84.5755 35.3929 87.8262 39.3442 87.8458 40.508M64.1623 26.8343C63.9626 27.18 69.0275 35.1752 74.2137 38.1694C79.3999 41.1636 87.0741 41.4454 87.8458 40.508M64.1623 26.8343L60.3696 33.4034C60.1699 33.7492 65.2348 41.7443 70.421 44.7385C75.6072 47.7328 83.2814 48.0145 84.0531 47.0771L87.8458 40.508" stroke="black" stroke-opacity="0.12"/>
<path d="M74.5205 36.0412C71.7981 34.4259 68.331 30.3932 68.331 30.3932L74.0201 20.5394C80.9233 21.7574 83.5893 23.5275 88.1956 28.7237L82.6795 38.6772C82.6795 38.6772 77.4414 37.774 74.5205 36.0412Z" fill="url(#paint1_linear_315_7)"/>
<path d="M63.2201 38.0878L41.6548 54.2763C41.6548 54.2763 55.7539 51.8136 61.2199 53.1254C66.686 54.4373 72.6973 55.603 76.5613 55.7017L78.1334 47.3895C78.1334 47.3895 73.0263 46.303 69.8284 44.2081C66.795 42.2209 63.2201 38.0878 63.2201 38.0878Z" fill="url(#paint2_linear_315_7)"/>
<path d="M53.5 96.5L65 87L62.5 83M62.5 83L66.5 76L60 68.5L69.5 59M62.5 83L60 81L56.5 83L52.5 82" stroke="black"/>
<path d="M25.5 70L31 67L36 76L46.5 70" stroke="black"/>
</g>
<defs>
<linearGradient id="paint0_linear_315_7" x1="40.3121" y1="56.1997" x2="74.5872" y2="76.6799" gradientUnits="userSpaceOnUse">
<stop stop-color="#F56565"/>
<stop offset="1" stop-color="#5B1A1A"/>
</linearGradient>
<linearGradient id="paint1_linear_315_7" x1="85.8817" y1="25.5453" x2="74.6067" y2="36.0916" gradientUnits="userSpaceOnUse">
<stop stop-color="#AB9D52"/>
<stop offset="0.0001" stop-color="#8A7E3F"/>
<stop offset="1" stop-color="#AB9D52"/>
</linearGradient>
<linearGradient id="paint2_linear_315_7" x1="58.6967" y1="41.9302" x2="77.0943" y2="52.7825" gradientUnits="userSpaceOnUse">
<stop stop-color="#CCCCCC"/>
<stop offset="1" stop-color="#777777"/>
</linearGradient>
<clipPath id="clip0_315_7">
<rect width="120" height="120" fill="white"/>
</clipPath>
</defs>
</svg>
