<svg width="588" height="134" viewBox="0 0 588 134" fill="none" xmlns="http://www.w3.org/2000/svg">
<g clip-path="url(#clip0_308_54)">
<rect width="588" height="134" fill="white"/>
<path d="M208.621 60.3516H195.245C195.001 58.621 194.502 57.0838 193.749 55.7401C192.995 54.3759 192.028 53.2154 190.847 52.2585C189.666 51.3016 188.302 50.5687 186.755 50.0597C185.228 49.5507 183.569 49.2962 181.777 49.2962C178.54 49.2962 175.72 50.1004 173.317 51.7088C170.915 53.2969 169.052 55.6179 167.729 58.6719C166.405 61.7055 165.744 65.3906 165.744 69.7273C165.744 74.1861 166.405 77.9323 167.729 80.9659C169.072 83.9995 170.946 86.29 173.348 87.8374C175.75 89.3847 178.53 90.1584 181.685 90.1584C183.457 90.1584 185.096 89.9242 186.602 89.456C188.129 88.9877 189.483 88.3056 190.664 87.4098C191.845 86.4936 192.822 85.384 193.596 84.081C194.39 82.7779 194.94 81.2917 195.245 79.6222L208.621 79.6832C208.275 82.554 207.41 85.3229 206.026 87.9901C204.661 90.6368 202.819 93.0088 200.498 95.1058C198.197 97.1825 195.449 98.8317 192.252 100.053C189.076 101.254 185.482 101.855 181.472 101.855C175.893 101.855 170.905 100.593 166.507 98.0682C162.13 95.5436 158.669 91.889 156.124 87.1044C153.599 82.3198 152.337 76.5275 152.337 69.7273C152.337 62.9067 153.619 57.1042 156.185 52.3196C158.75 47.535 162.232 43.8906 166.629 41.3864C171.027 38.8617 175.974 37.5994 181.472 37.5994C185.096 37.5994 188.455 38.1084 191.55 39.1264C194.665 40.1444 197.424 41.6307 199.826 43.5852C202.228 45.5194 204.183 47.8913 205.69 50.701C207.217 53.5107 208.194 56.7275 208.621 60.3516ZM239.054 101.916C234.31 101.916 230.208 100.908 226.747 98.8928C223.306 96.8568 220.649 94.0268 218.776 90.4027C216.903 86.7583 215.966 82.5336 215.966 77.7287C215.966 72.883 216.903 68.6482 218.776 65.0241C220.649 61.3797 223.306 58.5497 226.747 56.5341C230.208 54.4981 234.31 53.4801 239.054 53.4801C243.798 53.4801 247.891 54.4981 251.331 56.5341C254.792 58.5497 257.46 61.3797 259.333 65.0241C261.206 68.6482 262.142 72.883 262.142 77.7287C262.142 82.5336 261.206 86.7583 259.333 90.4027C257.46 94.0268 254.792 96.8568 251.331 98.8928C247.891 100.908 243.798 101.916 239.054 101.916ZM239.115 91.8381C241.274 91.8381 243.075 91.2273 244.521 90.0057C245.967 88.7637 247.056 87.0739 247.789 84.9361C248.542 82.7983 248.919 80.3653 248.919 77.6371C248.919 74.9089 248.542 72.4759 247.789 70.3381C247.056 68.2003 245.967 66.5104 244.521 65.2685C243.075 64.0265 241.274 63.4055 239.115 63.4055C236.937 63.4055 235.105 64.0265 233.618 65.2685C232.152 66.5104 231.043 68.2003 230.289 70.3381C229.556 72.4759 229.19 74.9089 229.19 77.6371C229.19 80.3653 229.556 82.7983 230.289 84.9361C231.043 87.0739 232.152 88.7637 233.618 90.0057C235.105 91.2273 236.937 91.8381 239.115 91.8381ZM270.602 101V54.0909H283.612V101H270.602ZM277.137 48.044C275.203 48.044 273.544 47.4027 272.159 46.12C270.795 44.817 270.113 43.2595 270.113 41.4474C270.113 39.6558 270.795 38.1186 272.159 36.8359C273.544 35.5329 275.203 34.8814 277.137 34.8814C279.072 34.8814 280.721 35.5329 282.085 36.8359C283.469 38.1186 284.162 39.6558 284.162 41.4474C284.162 43.2595 283.469 44.817 282.085 46.12C280.721 47.4027 279.072 48.044 277.137 48.044ZM307.044 73.8807V101H294.034V54.0909H306.433V62.3672H306.982C308.021 59.639 309.762 57.4808 312.205 55.8928C314.648 54.2843 317.61 53.4801 321.092 53.4801C324.349 53.4801 327.19 54.1927 329.612 55.6179C332.035 57.0431 333.919 59.0791 335.262 61.7259C336.606 64.3523 337.278 67.4877 337.278 71.1321V101H324.268V73.4531C324.288 70.5824 323.555 68.3428 322.069 66.7344C320.583 65.1056 318.537 64.2912 315.931 64.2912C314.18 64.2912 312.632 64.6678 311.289 65.4212C309.965 66.1745 308.927 67.2739 308.173 68.7195C307.441 70.1446 307.064 71.8651 307.044 73.8807ZM347.776 101V38.4545H389.188V49.3572H361V64.2607H386.439V75.1634H361V101H347.776ZM410.848 38.4545V101H397.838V38.4545H410.848ZM434.646 101.886C431.653 101.886 428.986 101.366 426.645 100.328C424.304 99.2694 422.451 97.7119 421.087 95.6555C419.743 93.5788 419.071 90.9931 419.071 87.8984C419.071 85.2924 419.549 83.1037 420.506 81.3324C421.463 79.5611 422.766 78.1359 424.415 77.0568C426.065 75.9777 427.938 75.1634 430.035 74.6136C432.152 74.0639 434.371 73.6771 436.692 73.4531C439.421 73.1681 441.62 72.9034 443.289 72.6591C444.959 72.3944 446.17 72.0076 446.923 71.4986C447.677 70.9896 448.053 70.2363 448.053 69.2386V69.0554C448.053 67.1212 447.442 65.6248 446.221 64.566C445.02 63.5073 443.309 62.978 441.09 62.978C438.749 62.978 436.886 63.4972 435.501 64.5355C434.117 65.5535 433.201 66.8362 432.753 68.3835L420.72 67.4062C421.331 64.5559 422.532 62.0923 424.324 60.0156C426.116 57.9186 428.426 56.3101 431.256 55.1903C434.107 54.0502 437.405 53.4801 441.151 53.4801C443.757 53.4801 446.251 53.7855 448.634 54.3963C451.036 55.0071 453.164 55.9538 455.016 57.2365C456.889 58.5192 458.366 60.1683 459.445 62.1839C460.524 64.1792 461.063 66.5715 461.063 69.3608V101H448.725V94.495H448.359C447.605 95.9609 446.598 97.2538 445.335 98.3736C444.073 99.473 442.556 100.338 440.785 100.969C439.013 101.58 436.967 101.886 434.646 101.886ZM438.372 92.907C440.286 92.907 441.976 92.5303 443.442 91.777C444.908 91.0033 446.058 89.965 446.893 88.6619C447.728 87.3589 448.145 85.8828 448.145 84.2337V79.2557C447.738 79.5204 447.178 79.7647 446.465 79.9886C445.773 80.1922 444.989 80.3857 444.114 80.5689C443.238 80.7318 442.363 80.8845 441.487 81.027C440.612 81.1491 439.818 81.2611 439.105 81.3629C437.578 81.5869 436.245 81.9432 435.104 82.4318C433.964 82.9205 433.079 83.5821 432.447 84.4169C431.816 85.2313 431.501 86.2493 431.501 87.4709C431.501 89.2422 432.142 90.5961 433.425 91.5327C434.728 92.4489 436.377 92.907 438.372 92.907ZM510.186 67.4673L498.276 68.2003C498.072 67.1823 497.635 66.2661 496.963 65.4517C496.291 64.617 495.405 63.9553 494.306 63.4666C493.227 62.9576 491.934 62.7031 490.427 62.7031C488.412 62.7031 486.712 63.1307 485.327 63.9858C483.943 64.8205 483.25 65.9403 483.25 67.3452C483.25 68.465 483.698 69.4117 484.594 70.1854C485.49 70.959 487.027 71.58 489.206 72.0483L497.696 73.7585C502.256 74.6951 505.656 76.2017 507.896 78.2784C510.136 80.3551 511.255 83.0833 511.255 86.4631C511.255 89.5374 510.349 92.2351 508.537 94.5561C506.746 96.8771 504.282 98.6892 501.147 99.9922C498.032 101.275 494.438 101.916 490.366 101.916C484.156 101.916 479.209 100.623 475.524 98.0376C471.859 95.4316 469.711 91.889 469.08 87.4098L481.876 86.7379C482.263 88.6314 483.199 90.0769 484.686 91.0746C486.172 92.0518 488.076 92.5405 490.397 92.5405C492.677 92.5405 494.509 92.1027 495.894 91.2273C497.299 90.3314 498.011 89.1811 498.032 87.7763C498.011 86.5954 497.512 85.6283 496.535 84.875C495.558 84.1013 494.051 83.5109 492.015 83.1037L483.892 81.4851C479.311 80.5689 475.9 78.9808 473.661 76.7209C471.442 74.4609 470.332 71.58 470.332 68.0781C470.332 65.0649 471.146 62.469 472.775 60.2905C474.424 58.112 476.735 56.4323 479.708 55.2514C482.701 54.0705 486.203 53.4801 490.213 53.4801C496.138 53.4801 500.801 54.7322 504.201 57.2365C507.621 59.7408 509.616 63.151 510.186 67.4673ZM531.236 87.5014L531.267 71.8956H533.16L548.186 54.0909H563.119L542.933 77.6676H539.848L531.236 87.5014ZM519.448 101V38.4545H532.458V101H519.448ZM548.766 101L534.962 80.5689L543.635 71.3764L564.005 101H548.766Z" fill="#5EBA54"/>
<circle cx="70.5001" cy="67.4996" r="55" transform="rotate(30 70.5001 67.4996)" fill="#FAFAFA" stroke="#5EBA54" stroke-width="5"/>
<path d="M33.2067 73.2274L64.0364 51.9321C64.0364 51.9321 69.4125 59.7111 73.9701 62.1212C78.0359 64.2712 85.9075 64.5594 85.9075 64.5594L83.4362 102.227L80.6504 107.052C80.6504 107.052 79.1839 108.609 72.5099 110.023C65.836 111.437 56.1273 109.72 47.972 105.011C39.8166 100.303 34.2498 91.746 32.104 86.6946C29.9581 81.6431 30.421 78.0524 30.421 78.0524L33.2067 73.2274Z" fill="url(#paint0_linear_308_54)"/>
<path d="M73.152 34.0369C74.045 33.3369 79.5754 34.342 79.5754 34.342L77.5754 37.8061C77.5754 37.8061 81.2569 42.0738 84.1441 43.7864C87.2415 45.6238 92.7908 46.5908 92.7908 46.5908L94.7908 43.1267C94.7908 43.1267 98.2431 47.3077 98.2668 48.5369L94.2668 55.4651C93.4519 56.4532 85.3243 56.1364 79.8247 52.9612C74.3251 49.786 68.9415 41.3297 69.152 40.9651L73.152 34.0369Z" fill="#A0A0A0"/>
<path d="M73.152 34.0369C74.045 33.3369 79.5754 34.342 79.5754 34.342L77.5754 37.8061C77.5754 37.8061 81.2569 42.0738 84.1441 43.7864C87.2415 45.6238 92.7908 46.5908 92.7908 46.5908L94.7908 43.1267C94.7908 43.1267 98.2431 47.3077 98.2668 48.5369M73.152 34.0369C72.9415 34.4015 78.3251 42.8578 83.8247 46.033C89.3243 49.2082 97.4519 49.525 98.2668 48.5369M73.152 34.0369L69.152 40.9651C68.9415 41.3297 74.3251 49.786 79.8247 52.9612C85.3243 56.1364 93.4519 56.4532 94.2668 55.4651L98.2668 48.5369" stroke="black" stroke-opacity="0.12"/>
<path d="M83.6565 43.6297C80.6985 41.8753 76.9208 37.5131 76.9208 37.5131L83.0304 26.931C90.5152 28.2802 93.4129 30.2011 98.431 35.8226L92.5093 46.5131C92.5093 46.5131 86.83 45.5119 83.6565 43.6297Z" fill="url(#paint1_linear_308_54)"/>
<path d="M71.4274 45.8043L63.9097 52.0456C63.9097 52.0456 69.1474 59.4991 73.184 61.8296C77.2205 64.1601 80.8252 64.2726 85.5604 64.5456L87.2539 55.68C87.2539 55.68 81.8284 54.5355 78.4349 52.3109C75.216 50.2007 71.4274 45.8043 71.4274 45.8043Z" fill="url(#paint2_linear_308_54)"/>
</g>
<defs>
<linearGradient id="paint0_linear_308_54" x1="47.0289" y1="65.1243" x2="83.778" y2="87.0819" gradientUnits="userSpaceOnUse">
<stop stop-color="#5EBA54"/>
<stop offset="1" stop-color="#276520"/>
</linearGradient>
<linearGradient id="paint1_linear_308_54" x1="95.9072" y1="32.3868" x2="83.8234" y2="43.7624" gradientUnits="userSpaceOnUse">
<stop stop-color="#AB9D52"/>
<stop offset="0.0001" stop-color="#8A7E3F"/>
<stop offset="1" stop-color="#AB9D52"/>
</linearGradient>
<linearGradient id="paint2_linear_308_54" x1="66.609" y1="49.9127" x2="86.136" y2="61.4299" gradientUnits="userSpaceOnUse">
<stop stop-color="#C1C1C1"/>
<stop offset="1" stop-color="#777777"/>
</linearGradient>
<clipPath id="clip0_308_54">
<rect width="588" height="134" fill="white"/>
</clipPath>
</defs>
</svg>
